<?xml version="1.0" encoding="utf-8"?>
<!-- Generator: Adobe Illustrator 23.0.0, SVG Export Plug-In . SVG Version: 6.00 Build 0)  -->
<svg version="1.1" id="Capa_1" xmlns="http://www.w3.org/2000/svg" xmlns:xlink="http://www.w3.org/1999/xlink" x="0px" y="0px"
	 viewBox="0 0 300 240" style="enable-background:new 0 0 300 240;" xml:space="preserve">
<style type="text/css">
	.st0{clip-path:url(#SVGID_2_);fill:url(#SVGID_3_);}
	.st1{fill-rule:evenodd;clip-rule:evenodd;fill:#FFFFFF;}
	.st2{clip-path:url(#SVGID_5_);}
	.st3{clip-path:url(#SVGID_9_);fill:url(#SVGID_10_);}
	.st4{fill-rule:evenodd;clip-rule:evenodd;fill:#E8244D;}
</style>
<g>
	<g>
		<defs>
			<path id="SVGID_1_" d="M213.8,84.8L195,114l5.4,8.3L230.6,76c0.5-0.9-0.2-1.5-0.8-1.5C226.2,74.9,218.3,77.6,213.8,84.8"/>
		</defs>
		<clipPath id="SVGID_2_">
			<use xlink:href="#SVGID_1_"  style="overflow:visible;"/>
		</clipPath>
		
			<linearGradient id="SVGID_3_" gradientUnits="userSpaceOnUse" x1="-778.3976" y1="5466.8877" x2="-777.7721" y2="5466.8877" gradientTransform="matrix(-88.0333 85.0127 85.0127 88.0333 -533038 -415023.75)">
			<stop  offset="0" style="stop-color:#FFFFFF"/>
			<stop  offset="3.184319e-02" style="stop-color:#F7F8F9"/>
			<stop  offset="0.2764" style="stop-color:#C1C3CF"/>
			<stop  offset="0.5038" style="stop-color:#969AAE"/>
			<stop  offset="0.7074" style="stop-color:#777D96"/>
			<stop  offset="0.8797" style="stop-color:#646A87"/>
			<stop  offset="1" style="stop-color:#5D6482"/>
		</linearGradient>
		<polygon class="st0" points="255,99.2 212.4,140.3 171.1,97.6 213.7,56.5 		"/>
	</g>
	<path class="st1" d="M271.4,159.2c2.2-1.9,5.1-2.9,8.4-2.9c2.9,0,5.4,0.9,7.6,2.7c1.7,1.4,2.9,3.3,3.6,5.7c0.2,0.6-0.3,1.1-0.9,1.1
		h-21.5c-0.6,0-1-0.6-0.8-1.2C268.5,162.5,269.7,160.6,271.4,159.2 M181.2,182.5c-3.7,0-6.7-1.2-9.2-3.7c-2.5-2.5-3.7-5.6-3.7-9.3
		s1.2-6.8,3.7-9.3c2.5-2.5,5.5-3.7,9.2-3.7c3.7,0,6.8,1.2,9.3,3.7c2.5,2.5,3.7,5.6,3.7,9.3s-1.2,6.8-3.7,9.3
		C187.9,181.3,184.9,182.5,181.2,182.5 M200.8,149.3h-5c-1,0-1.7,0.8-1.7,1.7v1c0,0.8-0.9,1.2-1.5,0.7c-3.2-3-7.4-4.5-12.3-4.5
		c-5.6,0-10.5,2.1-14.5,6.2c-4,4.1-6,9.2-6,15.1c0,5.9,2,11,6,15.1c4,4.1,8.9,6.2,14.5,6.2c5,0,9.1-1.5,12.3-4.4
		c0.6-0.5,1.5-0.1,1.5,0.7v1c0,1,0.8,1.7,1.7,1.7h5c1,0,1.7-0.8,1.7-1.7v-37C202.6,150,201.8,149.3,200.8,149.3 M157,149.3h-7.7
		c-0.5,0-0.9-0.4-0.9-0.9v-9.1c0-0.3-0.1-0.5-0.3-0.7c-0.1-0.1-0.3-0.2-0.5-0.2c-0.1,0-0.2,0-0.2,0l-6.1,1.8
		c-0.7,0.2-1.2,0.9-1.2,1.7v6.4c0,0.5-0.4,0.9-0.9,0.9h-5c-1,0-1.7,0.8-1.7,1.7v4.7c0,1,0.8,1.7,1.7,1.7h5c0.5,0,0.9,0.4,0.9,0.9
		v19.3c0,5.1,1.5,8.6,4.5,10.5c2,1.3,4.8,1.9,8.4,1.9c1.3,0,2.8-0.1,4.3-0.3c0.9-0.1,1.5-0.8,1.5-1.7v-5.3c0-0.2-0.1-0.5-0.3-0.6
		c-0.2-0.2-0.4-0.2-0.6-0.2h0c-1.8,0.1-3.4,0.1-4.7,0.1c-0.3,0-0.7,0-1,0c-1.3,0-2.3-0.3-2.8-1c-0.6-0.6-0.9-1.8-0.9-3.5v-19.3
		c0-0.5,0.4-0.9,0.9-0.9h7.7c1,0,1.7-0.8,1.7-1.7V151C158.8,150,158,149.3,157,149.3 M114.4,148.2c-4.1,0-7.6,1.1-10.3,3.4
		c-0.6,0.5-1.5,0.1-1.5-0.7c0-1-0.8-1.7-1.7-1.7h-5c-1,0-1.7,0.8-1.7,1.7v37c0,1,0.8,1.7,1.7,1.7h5c1,0,1.7-0.8,1.7-1.7v-19.7
		c0-4.1,1-7.1,2.9-9.1c1.9-1.9,4.4-2.9,7.5-2.9c2.8,0,4.9,0.8,6.5,2.3c1.5,1.6,2.3,3.8,2.3,6.7V188c0,1,0.8,1.7,1.7,1.7h5
		c1,0,1.7-0.8,1.7-1.7v-22.9c0-5.1-1.5-9.2-4.3-12.3C123.1,149.8,119.2,148.2,114.4,148.2 M65.6,182.5c-3.7,0-6.7-1.2-9.2-3.7
		c-2.5-2.5-3.7-5.6-3.7-9.3s1.2-6.8,3.7-9.3c2.5-2.5,5.5-3.7,9.2-3.7c3.7,0,6.8,1.2,9.3,3.7c2.5,2.5,3.7,5.6,3.7,9.3
		s-1.2,6.8-3.7,9.3C72.3,181.3,69.3,182.5,65.6,182.5 M85.2,149.3h-5c-1,0-1.7,0.8-1.7,1.7v1c0,0.8-0.9,1.2-1.5,0.7
		c-3.2-3-7.4-4.5-12.3-4.5c-5.6,0-10.5,2.1-14.5,6.2c-4,4.1-6,9.2-6,15.1c0,5.9,2,11,6,15.1c4,4.1,8.9,6.2,14.5,6.2
		c5,0,9.1-1.5,12.3-4.4c0.6-0.5,1.5-0.1,1.5,0.7v1c0,1,0.8,1.7,1.7,1.7h5c1,0,1.7-0.8,1.7-1.7v-37C87,150,86.2,149.3,85.2,149.3
		 M20.4,191.2c-5.2,0-9.7-1.2-13.4-3.6c-3-2-5.3-4.5-6.8-7.7c-0.6-1.2-0.1-2.5,1-3.2l3.5-2.1c1.2-0.7,2.7-0.3,3.4,0.9
		c2.4,4.6,6.6,6.9,12.5,6.9c3.4,0,5.9-0.7,7.6-2c1.7-1.3,2.5-3,2.5-5.2c0-2.2-0.9-3.9-2.7-5.1c-1.8-1.2-5-2.4-9.6-3.8c0,0,0,0-0.1,0
		c-2.5-0.9-4.6-1.7-6.2-2.3c-1.6-0.6-3.3-1.5-5.1-2.7c-1.8-1.2-3.1-2.7-4-4.6c-0.9-1.8-1.3-3.9-1.3-6.4c0-4.8,1.7-8.7,5.1-11.5
		c3.4-2.8,7.6-4.2,12.4-4.2c4.4,0,8.2,1.1,11.4,3.2c2.6,1.7,4.7,3.9,6.4,6.6c0.7,1.2,0.3,2.7-0.9,3.4l-3.3,1.9
		c-1.1,0.6-2.5,0.3-3.2-0.8c-2.3-3.7-5.8-5.6-10.4-5.6c-2.6,0-4.7,0.6-6.2,1.8c-1.6,1.2-2.3,2.9-2.3,4.9c0,2,0.8,3.5,2.4,4.7
		c1.6,1.1,4.5,2.3,8.6,3.6c0,0,0,0,0.1,0c2,0.8,3.5,1.3,4.4,1.7c0.9,0.4,2.3,0.9,4.1,1.5c1.8,0.7,3.1,1.4,4,2.1
		c0.9,0.7,1.8,1.7,2.8,2.8c1,1.1,1.7,2.4,2.1,3.8c0.4,1.4,0.6,3,0.6,4.8c0,4.9-1.8,8.8-5.3,11.7C30.8,189.8,26.2,191.2,20.4,191.2
		 M255.2,144.3h-19.7c-0.5,0-0.9,0.4-0.9,0.9v13.4c0,0.5,0.4,0.9,0.9,0.9H253c1.3,0,2.4,1.1,2.4,2.4v3.8c0,1.3-1.1,2.4-2.4,2.4
		h-17.5c-0.5,0-0.9,0.4-0.9,0.9v18.8c0,1.3-1.1,2.4-2.4,2.4H228c-1.3,0-2.4-1.1-2.4-2.4v-49.8c0-1.3,1.1-2.4,2.4-2.4h27.2
		c1.3,0,2.4,1.1,2.4,2.4v3.8C257.5,143.2,256.5,144.3,255.2,144.3 M294.4,154.5c-3.8-4.2-8.6-6.3-14.6-6.3c-6.2,0-11.4,2-15.3,6.1
		c-3.9,4-5.9,9.1-5.9,15.2c0,6.1,2,11.2,6,15.2c4,4,9.3,6,15.6,6c6.7,0,12.1-2.2,15.9-6.7c1.1-1.2,0.7-3.1-0.7-4l-2.6-1.5
		c-1.1-0.6-2.5-0.4-3.3,0.6c-2.2,2.4-5.2,3.5-9.2,3.5c-3.5,0-6.4-0.9-8.8-2.7c-1.8-1.4-3.1-3.1-3.9-5.4c-0.2-0.6,0.2-1.2,0.8-1.2
		h29.5c0.9,0,1.6-0.7,1.7-1.5c0.1-0.8,0.1-1.6,0.1-2.3C300,163.7,298.1,158.7,294.4,154.5"/>
	<path class="st1" d="M292.5,223.7c-1.1,1.1-2.4,1.7-4.1,1.7c-1.6,0-3-0.5-4.1-1.7c-1.1-1.1-1.6-2.5-1.6-4.1c0-1.6,0.5-3,1.6-4.1
		c1.1-1.1,2.4-1.7,4.1-1.7c1.7,0,3,0.5,4.1,1.7c1.1,1.1,1.6,2.5,1.6,4.1C294.2,221.2,293.6,222.6,292.5,223.7 M229.3,203.3
		c-0.7,0-1.3,0.2-1.8,0.7c-0.5,0.5-0.7,1.1-0.7,1.7c0,0.7,0.2,1.2,0.7,1.7c0.5,0.5,1.1,0.7,1.7,0.7c0.7,0,1.2-0.2,1.7-0.7
		c0.5-0.5,0.7-1.1,0.7-1.7s-0.2-1.2-0.7-1.7C230.6,203.6,230,203.3,229.3,203.3 M274.6,203.3c-0.7,0-1.3,0.2-1.7,0.7
		c-0.5,0.5-0.7,1.1-0.7,1.7c0,0.7,0.2,1.2,0.7,1.7c0.5,0.5,1.1,0.7,1.7,0.7c0.7,0,1.2-0.2,1.7-0.7c0.5-0.5,0.7-1.1,0.7-1.7
		s-0.2-1.2-0.7-1.7C275.8,203.6,275.3,203.3,274.6,203.3 M169,216.6c1.2,0,2.1-0.4,2.9-1.2c0.8-0.8,1.1-1.8,1.1-3
		c0-1.2-0.4-2.2-1.1-3c-0.8-0.8-1.7-1.2-2.9-1.2h-4.6c-0.2,0-0.3,0.2-0.3,0.3v7.7c0,0.2,0.2,0.3,0.3,0.3H169z M169,204.5
		c2.3,0,4.2,0.8,5.7,2.3c1.5,1.5,2.3,3.4,2.3,5.6c0,2.2-0.8,4.1-2.3,5.6c-1.5,1.5-3.4,2.3-5.7,2.3h-4.6c-0.2,0-0.3,0.2-0.3,0.3v6.8
		c0,0.6-0.5,1.1-1.1,1.1h-1.7c-0.6,0-1.1-0.5-1.1-1.1v-21.8c0-0.6,0.5-1.1,1.1-1.1H169z M186.8,210.2c-1.6,0.1-2.8,0.7-3.8,1.6
		c-0.1,0.1-0.2,0.1-0.3,0.1c0,0-0.1-0.1-0.1-0.2v-0.1c0-0.6-0.5-1.1-1.1-1.1h-1.7c-0.6,0-1.1,0.5-1.1,1.1v16c0,0.6,0.5,1.1,1.1,1.1
		h1.7c0.6,0,1.1-0.5,1.1-1.1V219c0-1.7,0.5-3,1.4-3.8c0.8-0.7,1.8-1,2.9-1.1c0.6,0,1-0.5,1-1.1v-1.8c0-0.3-0.1-0.6-0.3-0.8
		C187.4,210.3,187.1,210.2,186.8,210.2 M201.9,223.7c-1.1,1.1-2.4,1.6-4.1,1.6c-1.6,0-2.9-0.5-4-1.6c-1.1-1.1-1.6-2.4-1.6-4.1
		c0-1.7,0.5-3,1.6-4.1c1.1-1.1,2.4-1.6,4-1.6c1.6,0,3,0.5,4.1,1.6c1.1,1.1,1.6,2.4,1.6,4.1C203.5,221.2,203,222.6,201.9,223.7
		 M197.8,210.1c-2.6,0-4.9,0.9-6.7,2.7c-1.8,1.8-2.8,4.1-2.8,6.8c0,2.7,0.9,4.9,2.8,6.8c1.8,1.8,4.1,2.7,6.7,2.7
		c2.6,0,4.9-0.9,6.8-2.7c1.8-1.8,2.8-4.1,2.8-6.8c0-2.7-0.9-4.9-2.8-6.8C202.7,211,200.5,210.1,197.8,210.1 M223.8,210.5
		c0.4,0,0.7,0.2,0.9,0.5c0.2,0.3,0.2,0.7,0.1,1l-6.4,16c-0.2,0.4-0.6,0.7-1,0.7h-2.6c-0.4,0-0.8-0.3-1-0.7l-6.4-16
		c-0.1-0.3-0.1-0.7,0.1-1c0.2-0.3,0.5-0.5,0.9-0.5h1.8c0.4,0,0.8,0.3,1,0.7l4.6,12c0.1,0.1,0.2,0.2,0.2,0.2c0,0,0.2,0,0.2-0.2
		l4.6-12c0.2-0.4,0.6-0.7,1-0.7H223.8z M230.2,210.5h-1.7c-0.6,0-1.1,0.5-1.1,1.1v16c0,0.6,0.5,1.1,1.1,1.1h1.7
		c0.6,0,1.1-0.5,1.1-1.1v-16C231.2,211,230.7,210.5,230.2,210.5 M243.7,210.1c-2,0-3.6,0.6-4.8,1.7c-0.1,0.1-0.2,0.1-0.2,0
		c0,0-0.2-0.1-0.2-0.2c0-0.6-0.5-1.1-1.1-1.1h-1.7c-0.6,0-1.1,0.5-1.1,1.1v16c0,0.6,0.5,1.1,1.1,1.1h1.7c0.6,0,1.1-0.5,1.1-1.1V219
		c0-1.8,0.4-3.2,1.3-4c0.8-0.9,1.9-1.3,3.3-1.3c1.2,0,2.2,0.3,2.8,1c0.7,0.7,1,1.7,1,3v9.8c0,0.6,0.5,1.1,1.1,1.1h1.7
		c0.6,0,1.1-0.5,1.1-1.1v-10c0-2.3-0.7-4.1-1.9-5.5C247.6,210.7,245.9,210.1,243.7,210.1 M270,223.5l-1.4-0.8
		c-0.5-0.3-1.1-0.1-1.4,0.3c-0.4,0.6-1,1.2-1.7,1.6c-0.9,0.5-1.8,0.8-2.9,0.8c-1.6,0-3-0.5-4-1.6c-1.1-1.1-1.6-2.4-1.6-4.1
		c0-1.6,0.5-3,1.6-4.1c1.1-1.1,2.4-1.6,4-1.6c1.1,0,2,0.3,2.9,0.8c0.7,0.4,1.2,0.9,1.6,1.5c0.3,0.5,0.9,0.6,1.4,0.3l1.4-0.8
		c0.2-0.1,0.4-0.4,0.5-0.7c0.1-0.3,0-0.6-0.1-0.8c-0.7-1.2-1.7-2.1-2.9-2.9c-1.4-0.9-3-1.3-4.8-1.3c-2.7,0-5,0.9-6.8,2.7
		c-1.8,1.8-2.7,4.1-2.7,6.8c0,2.7,0.9,5,2.7,6.8c1.8,1.8,4.1,2.7,6.8,2.7c1.7,0,3.4-0.4,4.8-1.3c1.2-0.7,2.2-1.7,2.9-2.8
		c0.2-0.3,0.2-0.6,0.2-0.9C270.4,223.9,270.2,223.6,270,223.5 M275.4,210.5h-1.7c-0.6,0-1.1,0.5-1.1,1.1v16c0,0.6,0.5,1.1,1.1,1.1
		h1.7c0.6,0,1.1-0.5,1.1-1.1v-16C276.5,211,276,210.5,275.4,210.5 M296.9,210.5h-1.7c-0.6,0-1.1,0.5-1.1,1.1v0.5
		c0,0.1-0.1,0.2-0.1,0.2c0,0-0.2,0.1-0.3-0.1c-1.5-1.4-3.4-2.2-5.7-2.2c-2.5,0-4.7,0.9-6.5,2.8c-1.8,1.8-2.7,4.1-2.7,6.7
		c0,2.6,0.9,4.9,2.7,6.7c1.8,1.8,4,2.8,6.5,2.8c2.3,0,4.2-0.7,5.7-2.2c0.1-0.1,0.2-0.1,0.3-0.1c0.1,0,0.1,0.1,0.1,0.2v0.5
		c0,0.6,0.5,1.1,1.1,1.1h1.7c0.6,0,1.1-0.5,1.1-1.1v-16C298,211,297.5,210.5,296.9,210.5"/>
	<path class="st1" d="M88.2,94.7c0.5,0,1.1,0.1,1.7,0.4c0.6,0.3,1.2,0.6,1.7,1c0.5,0.4,0.8,0.8,1.1,1.2c0.2,0.4,0.2,0.8-0.1,1.1
		c-0.8,0.8-1.6,1.7-2.3,2.6c-0.7,0.9-1.3,1.7-1.8,2.5c-0.5,0.8-1,1.4-1.4,1.8c-0.4,0.5-0.7,0.7-0.9,0.7c-0.5,0-1-0.3-1.6-0.8
		s-0.8-1.1-0.8-1.6c0-0.5,0.1-1.2,0.4-2.2c0.3-1,0.7-2,1.1-2.9c0.5-1,0.9-1.8,1.5-2.6C87.3,95.1,87.7,94.7,88.2,94.7 M89,117.4
		c0.2-0.2,0.4-0.3,0.6-0.3c0.3,0,0.5,0.1,0.6,0.4c0.2,0.3,0.1,0.6-0.1,0.9c0,0.1-0.3,0.5-0.8,1.1c-0.5,0.7-1,1.4-1.7,2.4
		c-0.7,0.9-1.4,1.9-2.3,2.9c-0.8,1-1.7,2-2.6,2.9c-0.9,0.9-1.8,1.6-2.6,2.2c-0.9,0.6-1.7,0.9-2.4,0.9c-0.3,0-0.6-0.1-1.1-0.3
		c-0.5-0.2-0.9-0.5-1.3-0.9c-0.4-0.4-0.8-0.8-1.1-1.2c-0.3-0.5-0.5-0.9-0.5-1.4c0-0.5,0.2-1.3,0.5-2.5c0.3-1.1,0.8-2.4,1.3-3.8
		c0.5-1.4,1.1-2.9,1.7-4.4c0.6-1.5,1.2-2.9,1.8-4.2c0.6-1.3,1.1-2.3,1.5-3.1c0.5-0.8,0.8-1.2,0.9-1.2c0.5,0,1.1,0.2,1.7,0.5
		c0.6,0.3,1.1,0.7,1.5,1.1c0.4,0.4,0.7,0.9,0.9,1.4c0.2,0.5,0.1,0.9-0.2,1.1c-0.3,0.3-0.7,1-1.2,2.3c-0.5,1.2-1.1,2.6-1.7,4.1
		c-0.6,1.5-1.1,2.9-1.5,4.1c-0.4,1.3-0.6,2.1-0.6,2.5c0,0.3,0.1,0.5,0.4,0.5c0.5,0,1.3-0.4,2.1-1.1c0.9-0.7,1.7-1.6,2.6-2.5
		c0.8-0.9,1.6-1.8,2.3-2.7C88.3,118.2,88.8,117.6,89,117.4"/>
	<path class="st1" d="M90.2,126.9c0-0.5,0-1.3,0.3-2.5c0.2-1.1,0.5-2.4,1-3.9c0.4-1.4,0.9-2.9,1.3-4.4c0.5-1.5,0.9-2.9,1.4-4.1
		c0.5-1.3,0.9-2.3,1.3-3.1c0.4-0.8,0.6-1.2,0.8-1.2c0.5,0,1.1,0.2,1.7,0.5c0.6,0.3,1.2,0.7,1.6,1.1c0.5,0.4,0.8,0.9,1,1.4
		c0.2,0.5,0.2,0.9-0.1,1.1c-0.2,0.3-0.6,1-1,2c-0.4,1.1-0.9,2.3-1.3,3.6c-0.4,1.3-0.8,2.5-1,3.7c-0.3,1.1-0.4,1.9-0.4,2.3
		c0.1,0.4,0.2,0.5,0.5,0.5c0.4,0,0.9-0.4,1.7-1.1c0.8-0.7,1.6-1.7,2.6-2.8c1-1.1,1.9-2.3,2.9-3.7c1-1.3,1.9-2.6,2.8-3.8
		c0.9-1.2,1.6-2.2,2.2-3c0.6-0.8,1-1.3,1.1-1.5c0.1-0.1,0.2-0.2,0.3-0.2s0.3,0.1,0.5,0.3c0.2,0.2,0.3,0.4,0.4,0.7
		c0.1,0.3,0.1,0.6,0.2,0.9c0,0.3,0,0.5-0.2,0.7c0,0.1-0.4,0.7-1.1,1.7c-0.7,1-1.5,2.3-2.6,3.8c-1,1.5-2.2,3.1-3.5,4.8
		c-1.3,1.7-2.5,3.3-3.8,4.7c-1.3,1.5-2.4,2.7-3.5,3.6c-1.1,1-2,1.4-2.7,1.4c-0.3,0-0.6-0.1-1.1-0.3c-0.5-0.2-1-0.5-1.4-0.9
		c-0.5-0.3-0.9-0.7-1.2-1.2C90.4,127.8,90.2,127.4,90.2,126.9"/>
	<path class="st1" d="M125.3,99.1c0,0.5-0.3,1-0.9,1.5c-0.6,0.6-1.3,1.1-2.1,1.6c-0.8,0.5-1.7,1-2.5,1.3c-0.9,0.4-1.5,0.5-2,0.5
		c-0.4,0-0.8-0.1-1.2-0.4c-0.4-0.3-0.5-0.6-0.5-0.9c0-0.1,0.3-0.4,0.8-0.8c0.5-0.4,1.1-0.8,1.7-1.3c0.6-0.5,1.2-1.1,1.7-1.8
		c0.5-0.7,0.8-1.4,0.8-2.1c0-0.8,0.3-1.2,0.8-1.2c0.3,0,0.7,0.1,1.1,0.3c0.4,0.2,0.8,0.5,1.1,0.9c0.3,0.3,0.6,0.7,0.9,1.1
		C125.1,98.5,125.3,98.8,125.3,99.1 M126.7,117.4c0.2-0.2,0.4-0.3,0.6-0.3c0.3,0,0.5,0.1,0.6,0.4c0.2,0.3,0.1,0.6-0.1,0.9
		c0,0.1-0.3,0.5-0.8,1.1c-0.5,0.7-1,1.4-1.7,2.4c-0.7,0.9-1.4,1.9-2.3,2.9c-0.8,1-1.7,2-2.6,2.9c-0.9,0.9-1.8,1.6-2.6,2.2
		c-0.9,0.6-1.7,0.9-2.4,0.9c-0.3,0-0.6-0.1-1.1-0.3c-0.5-0.2-0.9-0.5-1.3-0.9c-0.4-0.4-0.8-0.8-1.1-1.2c-0.3-0.5-0.5-0.9-0.5-1.4
		c0-0.5,0.2-1.3,0.5-2.5c0.3-1.1,0.8-2.4,1.3-3.8c0.5-1.4,1.1-2.9,1.7-4.4c0.6-1.5,1.2-2.9,1.8-4.2c0.6-1.3,1.1-2.3,1.5-3.1
		c0.5-0.8,0.8-1.2,0.9-1.2c0.5,0,1.1,0.2,1.7,0.5c0.6,0.3,1.1,0.7,1.5,1.1c0.4,0.4,0.7,0.9,0.9,1.4c0.2,0.5,0.1,0.9-0.2,1.1
		c-0.3,0.3-0.7,1-1.2,2.3c-0.5,1.2-1.1,2.6-1.7,4.1c-0.6,1.5-1.1,2.9-1.5,4.1c-0.4,1.3-0.6,2.1-0.6,2.5c0,0.3,0.1,0.5,0.4,0.5
		c0.5,0,1.3-0.4,2.1-1.1c0.9-0.7,1.7-1.6,2.6-2.5c0.8-0.9,1.6-1.8,2.3-2.7C126.1,118.2,126.5,117.6,126.7,117.4"/>
	<path class="st1" d="M58.5,129.2c-0.3,0.7-1.1,1.1-1.8,0.9c-1.1-0.3-2.3-0.8-3.6-1.5c-2.1-1.3-4-2.6-5.6-4.1
		c-0.1-0.1-0.1-0.1-0.2-0.2c-1.5-1.4-1.5-3.7-0.2-5.2c0.8-1,1.6-2.3,2.4-4c1.6-3.5,3-8,4.3-13.4c1.3-5.3,2.4-11.2,3.4-17.7
		c1-6.5,1.8-12.8,2.2-18.8c0.5-6,0.7-11.6,0.6-16.5c-0.1-5-0.6-8.6-1.3-10.9c-0.9-2.9-3-4.6-6-4.6c-3.4,0-6.8,0.8-9.9,2.4
		c-3,1.6-5.9,3.6-8.5,6.1c-2.6,2.4-4.9,5.2-7,8.2c-2.1,3-3.7,6-5,8.9c-1.3,3-2.1,5.8-2.6,8.4c-0.5,2.9-0.5,5.1,0.2,6.9
		c0.6,1.7,1.3,3,2.1,3.8c0.5,0.6,1.1,1.1,1.6,1.5c-0.2-0.1-0.3-0.1-0.5-0.2c-1.3-0.5-2.7-1.3-4.2-2.3c-1.5-1-2.9-2.3-4.2-3.9
		c-1.3-1.5-2.3-3.3-2.9-5.3c-1.3-3.5-1.3-7.5,0-12.1C13,51,15.3,46.4,18.4,42c3.1-4.3,7.1-8,11.8-11c4.6-2.9,9.7-4.4,15.3-4.4
		c2.6,0,5.1,0.6,7.5,1.7c2.5,1.1,4.8,2.6,6.7,4.2c2,1.6,3.7,3.4,5.2,5.3c1.4,1.9,2.4,3.5,3,5c0.8,2.1,1.3,5.1,1.5,8.9
		c0.2,3.9,0.2,8.2,0.1,12.9c-0.2,4.7-0.5,9.7-1.1,14.9c-0.6,5.2-1.2,10.3-2,15.3c-0.1,0.8,0.2,1.6,0.9,2c0.3,0.1,0.5,0.2,0.8,0.2
		c0.6,0,1.2-0.3,1.5-0.9c2.2-4,4.8-8.5,7.8-13.5c3-5,6.3-10.1,9.8-15.2c3.5-5.1,7.2-10.2,11.1-15c3.8-4.8,7.8-9.2,11.8-12.9
		c3.9-3.7,7.9-6.8,11.9-9.1c3.8-2.2,7.4-3.3,10.9-3.3c2.4,0,4.4,0.6,5.9,1.9c1.6,1.3,2.8,2.8,3.5,4.4c0.7,1.6,1,3,0.9,4.2
		c0,0.4-0.1,0.6-0.1,0.6c0,0-0.1,0-0.1,0c-0.2-0.2-0.4-0.3-0.6-0.5c-0.4-0.3-1-0.5-1.9-0.7c-0.8-0.2-2.1-0.3-4.1-0.3
		c-5.1,0-10.4,1.7-15.8,5c-5.3,3.2-10.5,7.4-15.6,12.4c-5.1,5-10,10.7-14.6,16.9c-4.6,6.2-8.9,12.4-12.7,18.4
		c-3.8,6-7.1,11.7-9.8,17c-2.7,5.3-4.7,9.5-5.9,12.6c0,0.1,0,0.1-0.1,0.2c-0.2,0.9-0.4,1.7-0.6,2.4c-0.1,0.7-0.3,1.3-0.5,1.9
		C59.8,125.9,59.1,127.8,58.5,129.2C58.5,129.2,58.5,129.2,58.5,129.2"/>
	<g>
		<defs>
			<rect id="SVGID_4_" x="179.8" y="126.6" width="29.9" height="6.9"/>
		</defs>
		<clipPath id="SVGID_5_">
			<use xlink:href="#SVGID_4_"  style="overflow:visible;"/>
		</clipPath>
		<g class="st2">
			<defs>
				<rect id="SVGID_6_" x="179.8" y="126.6" width="29.9" height="6.9"/>
			</defs>
			<clipPath id="SVGID_7_">
				<use xlink:href="#SVGID_6_"  style="overflow:visible;"/>
			</clipPath>
			<g transform="matrix(1 0 0 1 0 0)" style="clip-path:url(#SVGID_7_);">
				
					<image style="overflow:visible;" width="199" height="47" xlink:href="1F357EC6.jpg"  transform="matrix(0.15 0 0 0.1468 179.7666 126.6254)">
				</image>
			</g>
		</g>
	</g>
	<path class="st1" d="M194.8,42.9c-6.1,0-11.2,5-11.2,11.2c0,3.2,1.4,6.2,3.8,8.3c2,1.8,4.7,2.8,7.4,2.8c6.1,0,11.2-5,11.2-11.2
		c0-4.1-2.3-7.9-6-9.9v0C198.4,43.3,196.7,42.9,194.8,42.9 M194.8,68.5c-3.5,0-6.9-1.3-9.6-3.7c-3.1-2.8-4.9-6.7-4.9-10.9
		c0-8,6.5-14.5,14.5-14.5c2.3,0,4.7,0.6,6.8,1.7c4.8,2.5,7.8,7.4,7.8,12.8C209.4,62,202.8,68.5,194.8,68.5"/>
	<g>
		<defs>
			<path id="SVGID_8_" d="M195.9,11c1.5,0.6,2.5,2.1,2.5,3.7c0,1.9-1.3,3.5-3.1,3.9c0,0,0,0-0.1,0h0c16.5,0.4,30.8,13,33.2,29.4
				c0.7,4.7,0.5,9.2-0.5,13.5c-0.5,2,1,3.8,3,3.8h1.4c1.4,0,2.7-1,3-2.4c1.1-4.9,1.4-10.1,0.7-15.4c-1.3-10-6.2-19.2-13.7-25.9
				C215,15,205.6,11.2,195.9,11C195.8,11,195.9,11,195.9,11 M195.8,11C195.8,11,195.8,11,195.8,11C195.8,11,195.8,11,195.8,11
				L195.8,11z"/>
		</defs>
		<clipPath id="SVGID_9_">
			<use xlink:href="#SVGID_8_"  style="overflow:visible;"/>
		</clipPath>
		
			<linearGradient id="SVGID_10_" gradientUnits="userSpaceOnUse" x1="-838.6527" y1="5463.5229" x2="-838.0272" y2="5463.5229" gradientTransform="matrix(-81.1136 -103.8207 -103.8207 81.1136 499441.5 -530165.375)">
			<stop  offset="0" style="stop-color:#FFFFFF"/>
			<stop  offset="1" style="stop-color:#5D6482"/>
		</linearGradient>
		<polygon class="st3" points="211,85.4 168.9,31.6 221.1,-9.2 263.2,44.7 		"/>
	</g>
	<path class="st4" d="M163.9,37.7c3.7-7.3,9.6-13,16.9-16.2c1.2-0.5,2.4-1,3.6-1.4c1.2-0.4,2.4-0.7,3.6-0.9c0.4-0.1,0.7-0.1,1.1-0.2
		c1.4-0.2,2.7-0.4,4.1-0.4c0.1,0,0.3,0,0.4,0c0.3,0,0.6,0,0.9,0c0.3,0,0.5,0,0.8,0h0c0,0,0,0,0.1,0c1.8-0.4,3.1-2,3.1-3.9
		c0-1.6-1-3.1-2.5-3.7c0,0-0.1,0-0.1,0c0,0,0,0,0,0c-0.4,0-0.8,0-1.2,0c-0.5,0-1,0-1.5,0c-0.2,0-0.4,0-0.5,0
		c-1.4,0.1-2.8,0.2-4.1,0.4c-0.2,0-0.5,0.1-0.7,0.1c-0.7,0.1-1.4,0.2-2.1,0.4c-0.5,0.1-1,0.2-1.5,0.4c-11.3,3-20.9,10.5-26.5,21
		c-4.9,9.2-6.3,19.7-4,29.6c0.3,1.4,1.6,2.4,3,2.4h1.4c2,0,3.5-1.9,3-3.8C159.2,53.5,160.1,45.2,163.9,37.7"/>
	<path class="st1" d="M194.1,130c-0.5,0-0.9-0.1-1.3-0.4c-0.3-0.2-0.5-0.4-0.7-0.7l-34.1-52.3c-0.5-0.7-0.3-1.6,0.4-2.1l0.2-0.1
		c0.2-0.2,0.5-0.2,0.8-0.2h7.1c0,0,0.1,0,0.1,0c0.5,0,0.9,0.3,1.1,0.7l31.3,47.9c0.1,0.2,0.2,0.5,0.2,0.7c0,0.3-0.1,0.7-0.2,0.9
		l-2.9,4.5c-0.2,0.3-0.4,0.5-0.7,0.7C195.1,129.8,194.6,130,194.1,130"/>
</g>
</svg>
