<?xml version="1.0" encoding="utf-8"?>
<!-- Generator: Adobe Illustrator 23.0.0, SVG Export Plug-In . SVG Version: 6.00 Build 0)  -->
<svg version="1.1" id="Capa_1" xmlns="http://www.w3.org/2000/svg" xmlns:xlink="http://www.w3.org/1999/xlink" x="0px" y="0px"
	 viewBox="0 0 624 606" style="enable-background:new 0 0 624 606;" xml:space="preserve">
<style type="text/css">
	.st0{fill-rule:evenodd;clip-rule:evenodd;fill:#F6F6F6;}
	.st1{fill:none;stroke:#E1E0E2;stroke-miterlimit:10;}
	.st2{fill:none;stroke:#E1E0E2;stroke-width:2;stroke-miterlimit:10;}
	.st3{fill-rule:evenodd;clip-rule:evenodd;fill:#B9DBDA;}
	.st4{fill-rule:evenodd;clip-rule:evenodd;fill:#FFFFFF;}
	.st5{fill:#E1E0E2;}
	.st6{fill-rule:evenodd;clip-rule:evenodd;fill:#EE373D;}
	.st7{fill:none;stroke:#FFFFFF;stroke-width:2;stroke-miterlimit:10;}
	.st8{fill-rule:evenodd;clip-rule:evenodd;fill:#1B3965;}
	.st9{fill:#FFFFFF;}
	.st10{fill:#1B3965;}
	.st11{fill:none;stroke:#1B3965;stroke-miterlimit:10;}
</style>
<g>
	<path class="st0" d="M129.3,18.9c0.6,23,1.7,63.2,1.7,63.2s-55.3,209.2-63.6,224c-3.6,6.4-23.4,108.6-25.6,121.4
		c-2.1,12.8-14.2,100.1-14.6,101.2c-0.2,0.5-4,28-8.1,58.2h135.4c37.5-23.8,56.2-27.8,69-29.8c13.5-2.1,58.9-5,63.9-7.1
		c5-2.1,4.3,0,7.8-2.8c3.6-2.8,13.5-12.1,15.6-17.8c2.1-5.7-5-7.1,5-7.8c9.9-0.7,22.7-3.6,22.7-3.6s6.4-13.5,14.9-14.2
		c8.5-0.7,17.4-11.4,24.5-10.3c7.1,1.1,17.8-1.4,25.6-5.7c7.8-4.3,7.1-4.3,11.7-5c4.6-0.7,2.8,0,7.5-0.7c4.6-0.7,6.7,0,12.8-8.9
		c6-8.9,8.5-11,9.9-12.1c1.4-1.1,10.3,12.1,6-8.5c-4.3-20.6,1.4-29.8-1.4-36.6c-2.8-6.7-7.1-7.5-1.8-12.4c5.3-5,1.8-2.1,7.8-7.1
		c6-5,13.1-9.6,7.1-20.2c-6-10.7-3.5-16.3,3.6-27.3c7.1-11,7.5-15.6,11.4-20.9c3.9-5.3,6-4.6,5.3-12.1c-0.7-7.5-1.4-11-1.4-16.7
		c0-5.7-1.1-6.7,0.4-10.3c1.4-3.5,4.6-1.8,2.1-6c-2.5-4.3-5.3-7.5-5.3-7.5s-0.7-19.5-1.4-27.3c-0.7-7.8-1.1-7.5-1.8-12.4
		c-0.7-5-3.6-3.9-1.4-8.2c2.1-4.3,7.1-14.2,8.2-19.2c1.1-5,0.4-7.5,0.4-7.5s-9.6,0-10.3-14.6c-0.7-14.6-0.7-12.8-1.4-21.3
		c-0.7-8.5-2.1-24.9,1.1-31.2c3.2-6.4,2.1-6.7,7.1-9.9c5-3.2,17.4-12.1,18.5-17.8c1.1-5.7,4.3-6.7,1.4-12.1c-2.8-5.3-6.4-7.1-7.1-11
		c-0.7-3.9-2.8-12.1-1.8-17.8c1.1-5.7-0.4-9.6,2.5-11.7c2.8-2.1,20.6-13.8,29.1-17.4c8.5-3.5,8.2-3.5,14.9-8.2
		c6.7-4.6,7.5-6,12.8-8.9c0.2-0.1,0.5-0.2,0.7-0.4H129.3z"/>
	<path class="st1" d="M155.9,587c37.5-23.8,56.2-27.8,69-29.8c13.5-2.1,58.9-5,63.9-7.1c5-2.1,4.3,0,7.8-2.8
		c3.5-2.8,13.5-12.1,15.6-17.8c2.1-5.7-5-7.1,5-7.8c9.9-0.7,22.7-3.6,22.7-3.6s6.4-13.5,14.9-14.2c8.5-0.7,17.4-11.4,24.5-10.3
		c7.1,1.1,17.8-1.4,25.6-5.7c7.8-4.3,7.1-4.3,11.7-5c4.6-0.7,2.8,0,7.5-0.7c4.6-0.7,6.7,0,12.8-8.9c6-8.9,8.5-11,9.9-12.1
		c1.4-1.1,10.3,12.1,6-8.5c-4.3-20.6,1.4-29.8-1.4-36.6c-2.8-6.7-7.1-7.5-1.8-12.4c5.3-5,1.8-2.1,7.8-7.1c6-5,13.1-9.6,7.1-20.2
		c-6-10.7-3.6-16.3,3.5-27.3s7.5-15.6,11.4-20.9c3.9-5.3,6-4.6,5.3-12.1c-0.7-7.5-1.4-11-1.4-16.7c0-5.7-1.1-6.7,0.4-10.3
		c1.4-3.6,4.6-1.8,2.1-6c-2.5-4.3-5.3-7.5-5.3-7.5s-0.7-19.5-1.4-27.3c-0.7-7.8-1.1-7.5-1.8-12.4c-0.7-5-3.5-3.9-1.4-8.2
		c2.1-4.3,7.1-14.2,8.2-19.2c1.1-5,0.4-7.5,0.4-7.5s-9.6,0-10.3-14.6c-0.7-14.6-0.7-12.8-1.4-21.3c-0.7-8.5-2.1-24.9,1.1-31.2
		s2.1-6.7,7.1-9.9c5-3.2,17.4-12.1,18.5-17.8c1.1-5.7,4.3-6.7,1.4-12.1c-2.8-5.3-6.4-7.1-7.1-11c-0.7-3.9-2.8-12.1-1.8-17.8
		c1.1-5.7-0.4-9.6,2.5-11.7c2.8-2.1,20.6-13.8,29.1-17.4c8.5-3.6,8.2-3.6,14.9-8.2c6.7-4.6,7.5-6,12.8-8.9c0.2-0.1,0.5-0.2,0.7-0.4"
		/>
	<path class="st2" d="M130.6,18.9c0.6,23,1.7,63.2,1.7,63.2S77,291.3,68.8,306.1c-3.6,6.4-23.4,108.6-25.6,121.4
		C41.1,440.3,29,527.7,28.6,528.7c-0.2,0.5-4,28-8.1,58.2"/>
	<path class="st3" d="M552.3,18.9C552.3,18.9,552.3,18.9,552.3,18.9c-6,3.1-6.4,4.4-13.5,9.2c-6.7,4.6-6.4,4.6-14.9,8.2
		s-26.3,15.3-29.1,17.4c-2.8,2.1-1.4,6-2.5,11.7c-1.1,5.7,1.1,13.8,1.8,17.8c0.7,3.9,4.3,5.7,7.1,11c2.8,5.3-0.4,6.4-1.4,12.1
		c-1.1,5.7-13.5,14.6-18.5,17.8c-5,3.2-3.9,3.5-7.1,9.9c-3.2,6.4-1.8,22.7-1.1,31.2c0.7,8.5,0.7,6.7,1.4,21.3
		c0.7,14.6,10.3,14.6,10.3,14.6s0.7,2.5-0.4,7.5c-1.1,5-6,14.9-8.2,19.2c-2.1,4.3,0.7,3.2,1.4,8.2c0.7,5,1.1,4.6,1.8,12.4
		c0.7,7.8,1.4,27.3,1.4,27.3s2.8,3.2,5.3,7.5c2.5,4.3-0.7,2.5-2.1,6c-1.4,3.6-0.4,4.6-0.4,10.3c0,5.7,0.7,9.2,1.4,16.7
		c0.7,7.5-1.4,6.7-5.3,12.1c-3.9,5.3-4.3,9.9-11.4,20.9s-9.6,16.7-3.6,27.3c6,10.7-1.1,15.3-7.1,20.2c-6,5-2.5,2.1-7.8,7.1
		c-5.3,5-1.1,5.7,1.8,12.4c2.8,6.7-2.8,16,1.4,36.6s-4.6,7.5-6,8.5c-1.4,1.1-3.9,3.2-9.9,12.1c-6,8.9-8.2,8.2-12.8,8.9
		c-4.6,0.7-2.8,0-7.5,0.7c-4.6,0.7-3.9,0.7-11.7,5c-7.8,4.3-18.5,6.7-25.6,5.7c-7.1-1.1-16,9.6-24.5,10.3
		c-8.5,0.7-14.9,14.2-14.9,14.2s-12.8,2.8-22.7,3.6s-2.8,2.1-5,7.8c-2.1,5.7-12.1,14.9-15.6,17.8c-3.5,2.8-2.8,0.7-7.8,2.8
		c-5,2.1-50.4,5-63.9,7.1c-12.9,2-31.6,6-69,29.8H338c1.4-5.2,4.1-10.4,8.3-14.4c9.7-9.2,8-2.1,14.7-2.8c6.6-0.7,12.1,0,22-0.5
		c9.9-0.5,5-4,14.9-18.7c9.9-14.7,21.5-10.2,28.2-11.4c6.6-1.2,16.1-10.2,16.3-16.8c0.2-6.6,5.4-15.6,5.9-16.3
		c0.5-0.7,5.2-5,8.3-7.1c3.1-2.1,1.7-5.2,1.4-8.5c-0.2-3.3,2.1-12.1,2.8-16.1c0.7-4,13.7-20.4,15.4-22.7c1.7-2.4,1.2-5.2,1.7-8.5
		c0.5-3.3,3.8-8.8,5.4-11.6c1.7-2.8,13.5-23.2,8.5-37.9c-5-14.7,6.2-26,8.3-31.5s6.9-24.1,3.3-36.5c-3.6-12.3-2.8-24.9,2.4-31.7
		c5.2-6.9,5.9-10.9,4.7-20.4c-1.2-9.5,1.9-14.9,1.9-14.9c8-29.6,6.4-63.9,5-69.1c-1.4-5.2-0.9-18-0.5-21.1c0.4-2.4,9.1-11,12.7-14.4
		c1-0.9,1.6-2.2,1.7-3.5l0.8-7.1c0.3-2.4,2-4.4,4.4-5c1.9-0.5,3.5-1.9,4.1-3.8c2.6-7.7,9.3-27.7,10.6-30.3
		c1.1-2.3,7.4-7.2,11.2-10.1c2-1.5,3.6-3.4,4.8-5.6l37.5-69.7H552.3z"/>
	<path class="st4" d="M539.4,47.1c0,0-5.2-1.4-9.7,4.7s-13,13.7-14.4,16.8c-1.4,3.1-7.1,9.2-6.6,11.6c0.5,2.4,2.1,6.9,2.1,10.2
		c0,3.3-0.2,5.9,1.4,6.9c1.7,0.9,3.8,3.1,5.4,0.2c1.7-2.8,2.6-5.7,2.6-9.5s-1.4-4.7,0.5-7.1c1.9-2.4,2.6-3.1,5.7-5.4
		c3.1-2.4,8.8-8.8,12.8-11.4c4-2.6,4.5,0.2,5.4-4.5c0.9-4.7,3.3-6.6,0.5-9.5C542.3,47.3,541.8,46.1,539.4,47.1"/>
	<path class="st4" d="M568.1,48.5c-1.2,0.8-6.6,0.7-8.8,4.3c-2.1,3.6-2.4,5-4.5,7.6c-2.1,2.6-3.6,3.8-7.1,6.2
		c-3.5,2.4-5.7,2.8-7.8,5.2s-5.2,2.8-5.4,7.1c-0.2,4.3-1.7,6.4-0.2,9c1.4,2.6,8.3,6.6,8.3,6.6s4-1.2,5.9-5c1.9-3.8,0.9-5.7,4-9
		c3.1-3.3,3.1-3.8,8.3-7.8c5.2-4,4-2.6,7.8-6.6c3.8-4,4.5-5.4,4.7-9.7C573.5,52,570.7,46.8,568.1,48.5"/>
	<path class="st4" d="M562.6,76.9c-3.2,1.4-8,6.4-8,9.7c0,3.3-2.1,5.4-2.6,8c-0.5,2.6-0.2,4.7,2.1,2.6c2.4-2.1,2.4-5.9,5.2-7.6
		c2.8-1.7,3.6-0.5,5-4S564.7,75.9,562.6,76.9"/>
	<path class="st5" d="M213.3,587.3l-4-0.6c7.7-50.5,20-90.2,36.5-117.9c4.3-7.2,8.8-14.5,13.1-21.5c15.8-25.7,32.1-52.2,43.3-80.7
		c6.6-16.9,11.6-34.7,16.4-51.9c5.4-19.1,10.9-38.9,18.7-57.6c3.8-9.1,7.8-16.6,12.2-23.1c1.6-2.4,3.4-4.6,5-6.8
		c3.4-4.4,6.6-8.6,9-13.6c7.9-16.3,12.2-34.5,16.5-52.1c8.8-36.6,15.4-76.8,19.6-119.5c0.3-3,0.7-9.1,1-14.5
		c0.2-3.4,0.4-6.6,0.5-8.5l4,0.3c-0.1,1.9-0.3,5.1-0.5,8.5c-0.3,5.5-0.7,11.6-1,14.7c-4.2,42.9-10.9,83.3-19.7,120.1
		c-4.1,17-8.7,36.2-16.8,52.9c-2.6,5.4-6.1,9.9-9.5,14.3c-1.6,2.1-3.3,4.4-4.9,6.6c-4.3,6.2-8.2,13.5-11.8,22.4
		c-7.7,18.5-13.2,38.1-18.5,57.1c-4.9,17.3-9.9,35.2-16.6,52.3c-11.3,28.8-27.7,55.6-43.6,81.4c-4.3,7-8.8,14.3-13.1,21.5
		C233,498.1,220.9,537.2,213.3,587.3"/>
	<path class="st6" d="M289.9,353.1h20c2.7,0,4.8,2.2,4.8,4.8v20c0,1.6-0.8,3.1-2.2,4l-10.1,6.8c-1.6,1.1-3.7,1.1-5.3,0.1l-10-6.3
		c-1.4-0.9-2.3-2.4-2.2-4.1l0.1-20.4C285.1,355.3,287.2,353.1,289.9,353.1"/>
	<path class="st7" d="M289.9,353.1h20c2.7,0,4.8,2.2,4.8,4.8v20c0,1.6-0.8,3.1-2.2,4l-10.1,6.8c-1.6,1.1-3.7,1.1-5.3,0.1l-10-6.3
		c-1.4-0.9-2.3-2.4-2.2-4.1l0.1-20.4C285.1,355.3,287.2,353.1,289.9,353.1z"/>
	<path class="st5" d="M381.6,161.1c-50.7-10.7-77.1-39.1-78.2-40.3l9.6-8.8l-4.8,4.4l4.8-4.4c0.2,0.3,25,26.6,71.4,36.4L381.6,161.1
		z"/>
	<path class="st8" d="M230.2,534.4c0-4.4-3.6-8-8-8c-4.4,0-8,3.6-8,8s3.6,8,8,8C226.6,542.5,230.2,538.9,230.2,534.4"/>
	<path class="st8" d="M238,505.5c0-4.4-3.6-8-8-8c-4.4,0-8,3.6-8,8c0,4.4,3.6,8,8,8C234.4,513.5,238,509.9,238,505.5"/>
	<path class="st8" d="M316.2,116.4c0-4.4-3.6-8-8-8c-4.4,0-8,3.6-8,8s3.6,8,8,8C312.6,124.5,316.2,120.9,316.2,116.4"/>
	<path class="st9" d="M294.9,375.9v-10.2c-0.6,0.3-1.8,0.5-2.5,0.6v-2.2c1.3-0.2,2.6-1,3.4-1.8h2.1v13.6H294.9z"/>
	<path class="st9" d="M302.6,375.9v-10.2c-0.6,0.3-1.8,0.5-2.5,0.6v-2.2c1.3-0.2,2.6-1,3.4-1.8h2.1v13.6H302.6z"/>
	<g>
		<path class="st10" d="M241.5,527.8c0.9-0.2,2.1-0.3,3.3-0.3c1.9,0,3.1,0.3,3.9,1.1c0.7,0.6,1.1,1.5,1.1,2.6c0,1.8-1.1,3-2.5,3.4
			v0.1c1,0.4,1.7,1.3,2,2.7c0.4,1.9,0.8,3.2,1,3.7h-1.8c-0.2-0.4-0.5-1.5-0.9-3.2c-0.4-1.9-1.1-2.6-2.7-2.6h-1.6v5.8h-1.7V527.8z
			 M243.2,533.9h1.8c1.9,0,3-1,3-2.6c0-1.7-1.3-2.5-3.1-2.5c-0.8,0-1.4,0.1-1.7,0.2V533.9z"/>
		<path class="st10" d="M253.2,536.5c0,2.4,1.6,3.4,3.3,3.4c1.3,0,2-0.2,2.7-0.5l0.3,1.3c-0.6,0.3-1.7,0.6-3.2,0.6
			c-3,0-4.8-2-4.8-4.9c0-2.9,1.7-5.2,4.5-5.2c3.2,0,4,2.8,4,4.6c0,0.4,0,0.6-0.1,0.8H253.2z M258.3,535.3c0-1.1-0.5-2.9-2.4-2.9
			c-1.8,0-2.6,1.6-2.7,2.9H258.3z"/>
		<path class="st10" d="M269.1,540.7c-0.5,0.2-1.5,0.6-2.8,0.6c-2.9,0-4.8-2-4.8-4.9c0-3,2-5.1,5.2-5.1c1,0,2,0.3,2.4,0.5l-0.4,1.4
			c-0.4-0.2-1.1-0.5-2-0.5c-2.2,0-3.4,1.6-3.4,3.7c0,2.2,1.4,3.6,3.4,3.6c1,0,1.7-0.3,2.2-0.5L269.1,540.7z"/>
		<path class="st10" d="M279.9,536.1c0,3.6-2.5,5.1-4.8,5.1c-2.6,0-4.6-1.9-4.6-5c0-3.2,2.1-5.1,4.8-5.1
			C278,531.2,279.9,533.2,279.9,536.1z M272.2,536.2c0,2.1,1.2,3.7,2.9,3.7c1.7,0,2.9-1.6,2.9-3.8c0-1.6-0.8-3.7-2.9-3.7
			C273.1,532.5,272.2,534.4,272.2,536.2z"/>
		<path class="st10" d="M282.1,534c0-1,0-1.8-0.1-2.6h1.6l0.1,1.6h0c0.5-0.9,1.6-1.8,3.2-1.8c1.3,0,3.4,0.8,3.4,4.1v5.8h-1.8v-5.6
			c0-1.6-0.6-2.9-2.2-2.9c-1.2,0-2.1,0.8-2.4,1.8c-0.1,0.2-0.1,0.5-0.1,0.8v5.8h-1.8V534z"/>
		<path class="st10" d="M299.8,539.6L299.8,539.6c-0.6,1-1.6,1.7-3.2,1.7c-2.3,0-4.1-2-4.1-4.9c0-3.6,2.3-5.2,4.4-5.2
			c1.5,0,2.5,0.7,3,1.7h0l0.1-1.5h1.7c0,0.8-0.1,1.7-0.1,2.7v11h-1.8V539.6z M299.8,535.3c0-0.2,0-0.5-0.1-0.7c-0.3-1.1-1.2-2-2.5-2
			c-1.8,0-2.9,1.5-2.9,3.7c0,1.9,0.9,3.6,2.9,3.6c1.1,0,2.1-0.7,2.5-1.9c0.1-0.2,0.1-0.6,0.1-0.8V535.3z"/>
		<path class="st10" d="M312.6,538.4c0,1,0,1.9,0.1,2.6h-1.6l-0.1-1.6h0c-0.5,0.8-1.5,1.8-3.2,1.8c-1.5,0-3.3-0.8-3.3-4.2v-5.7h1.8
			v5.4c0,1.8,0.6,3.1,2.2,3.1c1.2,0,2-0.8,2.3-1.6c0.1-0.3,0.2-0.6,0.2-0.9v-5.9h1.8V538.4z"/>
		<path class="st10" d="M317.5,528.7c0,0.6-0.4,1.1-1.1,1.1c-0.6,0-1.1-0.5-1.1-1.1c0-0.6,0.5-1.1,1.1-1.1
			C317.1,527.6,317.5,528,317.5,528.7z M315.5,541.1v-9.7h1.8v9.7H315.5z"/>
		<path class="st10" d="M320,539.3c0.5,0.3,1.4,0.7,2.3,0.7c1.3,0,1.9-0.6,1.9-1.4c0-0.8-0.5-1.3-1.8-1.8c-1.7-0.6-2.6-1.6-2.6-2.7
			c0-1.6,1.3-2.8,3.3-2.8c1,0,1.8,0.3,2.4,0.6l-0.4,1.3c-0.4-0.2-1.1-0.6-2-0.6c-1,0-1.6,0.6-1.6,1.3c0,0.8,0.6,1.2,1.8,1.6
			c1.7,0.6,2.5,1.5,2.5,2.9c0,1.7-1.3,2.9-3.6,2.9c-1.1,0-2-0.3-2.7-0.7L320,539.3z"/>
		<path class="st10" d="M330.2,528.6v2.8h2.5v1.3h-2.5v5.2c0,1.2,0.3,1.9,1.3,1.9c0.5,0,0.8-0.1,1-0.1l0.1,1.3
			c-0.3,0.1-0.9,0.2-1.6,0.2c-0.8,0-1.5-0.3-1.9-0.7c-0.5-0.5-0.7-1.4-0.7-2.5v-5.3H327v-1.3h1.5v-2.3L330.2,528.6z"/>
		<path class="st10" d="M340.1,541.1l-0.1-1.2h-0.1c-0.5,0.8-1.6,1.4-3,1.4c-2,0-3-1.4-3-2.8c0-2.3,2.1-3.6,5.8-3.6v-0.2
			c0-0.8-0.2-2.2-2.2-2.2c-0.9,0-1.8,0.3-2.5,0.7l-0.4-1.2c0.8-0.5,2-0.9,3.2-0.9c3,0,3.7,2,3.7,4v3.6c0,0.8,0,1.7,0.2,2.3H340.1z
			 M339.8,536.1c-1.9,0-4.1,0.3-4.1,2.2c0,1.1,0.8,1.7,1.7,1.7c1.3,0,2.1-0.8,2.3-1.6c0.1-0.2,0.1-0.4,0.1-0.6V536.1z"/>
	</g>
	<g>
		<path class="st10" d="M363.3,305.2c1.5,0.9,3.7,1.7,5.9,1.7c3.4,0,5.4-1.8,5.4-4.4c0-2.4-1.4-3.8-4.8-5.1
			c-4.2-1.5-6.8-3.7-6.8-7.3c0-4,3.3-7,8.3-7c2.6,0,4.5,0.6,5.7,1.3L376,287c-0.8-0.5-2.6-1.2-4.9-1.2c-3.5,0-4.8,2.1-4.8,3.8
			c0,2.4,1.6,3.6,5.1,5c4.3,1.7,6.6,3.8,6.6,7.5c0,4-2.9,7.4-9,7.4c-2.5,0-5.2-0.7-6.6-1.6L363.3,305.2z"/>
		<path class="st10" d="M386.1,285.6c0,1.1-0.8,2.1-2.1,2.1c-1.2,0-2-0.9-2-2.1c0-1.2,0.9-2.1,2.1-2.1
			C385.3,283.5,386.1,284.4,386.1,285.6z M382.4,309.2v-18.4h3.4v18.4H382.4z"/>
		<path class="st10" d="M395.4,285.4v5.3h4.8v2.6h-4.8v9.9c0,2.3,0.6,3.6,2.5,3.6c0.9,0,1.5-0.1,1.9-0.2l0.2,2.5
			c-0.6,0.3-1.7,0.5-3,0.5c-1.6,0-2.8-0.5-3.6-1.4c-1-1-1.3-2.6-1.3-4.8v-10.1h-2.9v-2.6h2.9v-4.4L395.4,285.4z"/>
		<path class="st10" d="M407.7,285.6c0,1.1-0.8,2.1-2.1,2.1c-1.2,0-2-0.9-2-2.1c0-1.2,0.9-2.1,2.1-2.1
			C406.9,283.5,407.7,284.4,407.7,285.6z M403.9,309.2v-18.4h3.4v18.4H403.9z"/>
		<path class="st10" d="M429.6,299.8c0,6.8-4.7,9.8-9.2,9.8c-5,0-8.8-3.7-8.8-9.5c0-6.2,4-9.8,9.1-9.8
			C426,290.3,429.6,294.2,429.6,299.8z M414.9,300c0,4,2.3,7.1,5.6,7.1c3.2,0,5.6-3,5.6-7.2c0-3.1-1.6-7.1-5.5-7.1
			C416.6,292.8,414.9,296.5,414.9,300z"/>
		<path class="st10" d="M442,283.8c1.7-0.3,4.1-0.5,6.4-0.5c3.5,0,5.8,0.6,7.4,2.1c1.3,1.1,2,2.9,2,4.9c0,3.4-2.1,5.6-4.8,6.6v0.1
			c2,0.7,3.2,2.5,3.8,5.2c0.8,3.6,1.4,6.1,2,7.1h-3.4c-0.4-0.7-1-2.9-1.7-6.1c-0.8-3.5-2.1-4.9-5.1-5h-3.1v11.1H442V283.8z
			 M445.3,295.5h3.4c3.5,0,5.8-1.9,5.8-4.9c0-3.3-2.4-4.8-5.9-4.8c-1.6,0-2.7,0.2-3.3,0.3V295.5z"/>
		<path class="st10" d="M472.6,309.2l-0.3-2.3h-0.1c-1,1.4-3,2.7-5.6,2.7c-3.7,0-5.6-2.6-5.6-5.3c0-4.5,4-6.9,11.1-6.9v-0.4
			c0-1.5-0.4-4.3-4.2-4.3c-1.7,0-3.5,0.5-4.8,1.4l-0.8-2.2c1.5-1,3.7-1.6,6.1-1.6c5.6,0,7,3.8,7,7.5v6.9c0,1.6,0.1,3.2,0.3,4.4
			H472.6z M472.1,299.8c-3.7-0.1-7.8,0.6-7.8,4.2c0,2.2,1.4,3.2,3.2,3.2c2.4,0,3.9-1.5,4.5-3.1c0.1-0.3,0.2-0.7,0.2-1.1V299.8z"/>
		<path class="st10" d="M480.8,295.7c0-1.9,0-3.5-0.2-5h2.9l0.2,3h0.1c1-1.8,2.7-3.4,5.8-3.4c2.5,0,4.4,1.5,5.2,3.7h0.1
			c0.6-1,1.3-1.8,2.1-2.4c1.1-0.8,2.3-1.3,4.1-1.3c2.4,0,6.1,1.6,6.1,8v10.9h-3.3v-10.4c0-3.5-1.3-5.7-4-5.7c-1.9,0-3.4,1.4-4,3
			c-0.2,0.5-0.3,1.1-0.3,1.7v11.4h-3.3v-11.1c0-2.9-1.3-5.1-3.8-5.1c-2.1,0-3.6,1.7-4.2,3.4c-0.2,0.5-0.3,1.1-0.3,1.6v11.1h-3.3
			V295.7z"/>
		<path class="st10" d="M512.1,305.8c1,0.6,2.7,1.3,4.4,1.3c2.4,0,3.6-1.2,3.6-2.7c0-1.6-1-2.5-3.4-3.4c-3.3-1.2-4.9-3-4.9-5.2
			c0-3,2.4-5.4,6.4-5.4c1.9,0,3.5,0.5,4.5,1.1l-0.8,2.4c-0.7-0.5-2.1-1.1-3.8-1.1c-2,0-3.1,1.1-3.1,2.5c0,1.5,1.1,2.2,3.5,3.1
			c3.2,1.2,4.8,2.8,4.8,5.6c0,3.2-2.5,5.5-6.9,5.5c-2,0-3.9-0.5-5.2-1.3L512.1,305.8z"/>
		<path class="st10" d="M537.7,309.2l-0.3-2.3h-0.1c-1,1.4-3,2.7-5.6,2.7c-3.7,0-5.6-2.6-5.6-5.3c0-4.5,4-6.9,11.1-6.9v-0.4
			c0-1.5-0.4-4.3-4.2-4.3c-1.7,0-3.5,0.5-4.8,1.4l-0.8-2.2c1.5-1,3.7-1.6,6.1-1.6c5.6,0,7,3.8,7,7.5v6.9c0,1.6,0.1,3.2,0.3,4.4
			H537.7z M537.3,299.8c-3.7-0.1-7.8,0.6-7.8,4.2c0,2.2,1.4,3.2,3.2,3.2c2.4,0,3.9-1.5,4.5-3.1c0.1-0.3,0.2-0.7,0.2-1.1V299.8z"/>
		<path class="st10" d="M545.9,296.5c0-2.2,0-4-0.2-5.8h2.9l0.1,3.6h0.2c0.8-2.5,2.9-4,5.1-4c0.4,0,0.6,0,1,0.1v3.2
			c-0.3-0.1-0.7-0.1-1.1-0.1c-2.4,0-4,1.8-4.5,4.3c-0.1,0.5-0.2,1-0.2,1.6v9.8h-3.3V296.5z"/>
	</g>
	<g>
		<path class="st10" d="M369,323.2h3.3v17.2c0,6.8-3.4,8.9-7.8,8.9c-1.2,0-2.7-0.3-3.5-0.6l0.5-2.7c0.7,0.3,1.7,0.5,2.8,0.5
			c3,0,4.7-1.3,4.7-6.4V323.2z"/>
		<path class="st10" d="M387.6,348.8l-0.3-2.3h-0.1c-1,1.4-3,2.7-5.6,2.7c-3.7,0-5.6-2.6-5.6-5.3c0-4.5,4-6.9,11.1-6.9v-0.4
			c0-1.5-0.4-4.3-4.2-4.3c-1.7,0-3.5,0.5-4.8,1.4l-0.8-2.2c1.5-1,3.7-1.6,6.1-1.6c5.6,0,7,3.8,7,7.5v6.9c0,1.6,0.1,3.2,0.3,4.4
			H387.6z M387.1,339.4c-3.7-0.1-7.8,0.6-7.8,4.2c0,2.2,1.4,3.2,3.2,3.2c2.4,0,3.9-1.5,4.5-3.1c0.1-0.3,0.2-0.7,0.2-1.1V339.4z"/>
		<path class="st10" d="M406,348.8l-0.3-2.3h-0.1c-1,1.4-3,2.7-5.6,2.7c-3.7,0-5.6-2.6-5.6-5.3c0-4.5,4-6.9,11.1-6.9v-0.4
			c0-1.5-0.4-4.3-4.2-4.3c-1.7,0-3.5,0.5-4.8,1.4l-0.8-2.2c1.5-1,3.7-1.6,6.1-1.6c5.6,0,7,3.8,7,7.5v6.9c0,1.6,0.1,3.2,0.3,4.4H406z
			 M405.5,339.4c-3.7-0.1-7.8,0.6-7.8,4.2c0,2.2,1.4,3.2,3.2,3.2c2.4,0,3.9-1.5,4.5-3.1c0.1-0.3,0.2-0.7,0.2-1.1V339.4z"/>
		<path class="st10" d="M429.6,343.8c0,1.9,0,3.6,0.2,5h-3l-0.2-3h-0.1c-0.9,1.5-2.8,3.4-6.1,3.4c-2.9,0-6.4-1.6-6.4-8.1v-10.8h3.4
			v10.2c0,3.5,1.1,5.9,4.1,5.9c2.2,0,3.8-1.6,4.4-3c0.2-0.5,0.3-1.1,0.3-1.7v-11.3h3.4V343.8z"/>
		<path class="st10" d="M438.5,338.9L438.5,338.9c0.5-0.6,1.2-1.4,1.7-2.1l5.4-6.4h4l-7.1,7.6l8.1,10.9h-4.1l-6.4-8.8l-1.7,1.9v6.9
			h-3.3v-27.1h3.3V338.9z"/>
		<path class="st10" d="M463.1,348.8l-0.3-2.3h-0.1c-1,1.4-3,2.7-5.6,2.7c-3.7,0-5.6-2.6-5.6-5.3c0-4.5,4-6.9,11.1-6.9v-0.4
			c0-1.5-0.4-4.3-4.2-4.3c-1.7,0-3.5,0.5-4.8,1.4l-0.8-2.2c1.5-1,3.7-1.6,6.1-1.6c5.6,0,7,3.8,7,7.5v6.9c0,1.6,0.1,3.2,0.3,4.4
			H463.1z M462.6,339.4c-3.7-0.1-7.8,0.6-7.8,4.2c0,2.2,1.4,3.2,3.2,3.2c2.4,0,3.9-1.5,4.5-3.1c0.1-0.3,0.2-0.7,0.2-1.1V339.4z"/>
		<path class="st10" d="M471.2,335.4c0-1.9,0-3.5-0.2-5h3l0.2,3h0.1c0.9-1.8,3-3.5,6.1-3.5c2.6,0,6.5,1.5,6.5,7.9v11h-3.4v-10.6
			c0-3-1.1-5.5-4.3-5.5c-2.2,0-3.9,1.6-4.5,3.4c-0.2,0.4-0.2,1-0.2,1.6v11.1h-3.4V335.4z"/>
		<path class="st10" d="M496.1,325.2c0,1.1-0.8,2.1-2.1,2.1c-1.2,0-2-0.9-2-2.1c0-1.2,0.9-2.1,2.1-2.1
			C495.3,323.1,496.1,324,496.1,325.2z M492.4,348.8v-18.4h3.4v18.4H492.4z"/>
		<path class="st10" d="M517.2,330.4c-0.1,1.3-0.2,2.8-0.2,5.1v10.7c0,4.2-0.8,6.8-2.6,8.4c-1.8,1.7-4.4,2.2-6.7,2.2
			c-2.2,0-4.7-0.5-6.1-1.5l0.8-2.6c1.2,0.8,3.1,1.4,5.4,1.4c3.4,0,5.9-1.8,5.9-6.4v-2.1h-0.1c-1,1.7-3,3.1-5.9,3.1
			c-4.6,0-7.9-3.9-7.9-9c0-6.3,4.1-9.8,8.3-9.8c3.2,0,5,1.7,5.8,3.2h0.1l0.2-2.8H517.2z M513.7,337.7c0-0.6,0-1.1-0.2-1.5
			c-0.6-1.9-2.2-3.5-4.7-3.5c-3.2,0-5.5,2.7-5.5,7c0,3.6,1.8,6.6,5.5,6.6c2.1,0,3.9-1.3,4.6-3.4c0.2-0.6,0.3-1.2,0.3-1.8V337.7z"/>
		<path class="st10" d="M532.3,348.8l-0.3-2.3H532c-1,1.4-3,2.7-5.6,2.7c-3.7,0-5.6-2.6-5.6-5.3c0-4.5,4-6.9,11.1-6.9v-0.4
			c0-1.5-0.4-4.3-4.2-4.3c-1.7,0-3.5,0.5-4.8,1.4l-0.8-2.2c1.5-1,3.7-1.6,6.1-1.6c5.6,0,7,3.8,7,7.5v6.9c0,1.6,0.1,3.2,0.3,4.4
			H532.3z M531.8,339.4c-3.7-0.1-7.8,0.6-7.8,4.2c0,2.2,1.4,3.2,3.2,3.2c2.4,0,3.9-1.5,4.5-3.1c0.1-0.3,0.2-0.7,0.2-1.1V339.4z"/>
		<path class="st10" d="M540,345.4c1,0.6,2.7,1.3,4.4,1.3c2.4,0,3.6-1.2,3.6-2.7c0-1.6-1-2.5-3.4-3.4c-3.3-1.2-4.9-3-4.9-5.2
			c0-3,2.4-5.4,6.4-5.4c1.9,0,3.5,0.5,4.5,1.1l-0.8,2.4c-0.7-0.5-2.1-1.1-3.8-1.1c-2,0-3.1,1.1-3.1,2.5c0,1.5,1.1,2.2,3.5,3.1
			c3.2,1.2,4.8,2.8,4.8,5.6c0,3.2-2.5,5.5-6.9,5.5c-2,0-3.9-0.5-5.2-1.3L540,345.4z"/>
	</g>
	<g>
		<path class="st10" d="M120,504.8l-1.4,4.2h-1.8l4.6-13.5h2.1l4.6,13.5h-1.9l-1.4-4.2H120z M124.4,503.4l-1.3-3.9
			c-0.3-0.9-0.5-1.7-0.7-2.5h0c-0.2,0.8-0.4,1.6-0.7,2.4l-1.3,3.9H124.4z"/>
		<path class="st10" d="M130.2,499.3l1.9,5.4c0.3,0.9,0.6,1.7,0.8,2.5h0.1c0.2-0.8,0.5-1.6,0.8-2.5l1.9-5.4h1.8l-3.8,9.7H132
			l-3.7-9.7H130.2z"/>
		<path class="st10" d="M140,504.5c0,2.4,1.6,3.4,3.3,3.4c1.3,0,2-0.2,2.7-0.5l0.3,1.3c-0.6,0.3-1.7,0.6-3.2,0.6c-3,0-4.8-2-4.8-4.9
			c0-2.9,1.7-5.2,4.5-5.2c3.2,0,4,2.8,4,4.6c0,0.4,0,0.6-0.1,0.8H140z M145.2,503.2c0-1.1-0.5-2.9-2.4-2.9c-1.8,0-2.6,1.6-2.7,2.9
			H145.2z"/>
		<path class="st10" d="M149.1,494.8h1.8V509h-1.8V494.8z"/>
		<path class="st10" d="M153.8,494.8h1.8V509h-1.8V494.8z"/>
		<path class="st10" d="M163.9,509l-0.1-1.2h-0.1c-0.5,0.8-1.6,1.4-3,1.4c-2,0-3-1.4-3-2.8c0-2.3,2.1-3.6,5.8-3.6v-0.2
			c0-0.8-0.2-2.2-2.2-2.2c-0.9,0-1.8,0.3-2.5,0.7l-0.4-1.2c0.8-0.5,2-0.9,3.2-0.9c3,0,3.7,2,3.7,4v3.6c0,0.8,0,1.7,0.2,2.3H163.9z
			 M163.6,504.1c-1.9,0-4.1,0.3-4.1,2.2c0,1.1,0.8,1.7,1.7,1.7c1.3,0,2.1-0.8,2.3-1.6c0.1-0.2,0.1-0.4,0.1-0.6V504.1z"/>
		<path class="st10" d="M168.1,502c0-1,0-1.8-0.1-2.6h1.6l0.1,1.6h0c0.5-0.9,1.6-1.8,3.2-1.8c1.3,0,3.4,0.8,3.4,4.1v5.8h-1.8v-5.6
			c0-1.6-0.6-2.9-2.2-2.9c-1.2,0-2.1,0.8-2.4,1.8c-0.1,0.2-0.1,0.5-0.1,0.8v5.8h-1.8V502z"/>
		<path class="st10" d="M180.2,504.5c0,2.4,1.6,3.4,3.3,3.4c1.3,0,2-0.2,2.7-0.5l0.3,1.3c-0.6,0.3-1.7,0.6-3.2,0.6
			c-3,0-4.8-2-4.8-4.9c0-2.9,1.7-5.2,4.5-5.2c3.2,0,4,2.8,4,4.6c0,0.4,0,0.6-0.1,0.8H180.2z M185.4,503.2c0-1.1-0.5-2.9-2.4-2.9
			c-1.8,0-2.6,1.6-2.7,2.9H185.4z"/>
		<path class="st10" d="M197.6,494.8v11.7c0,0.9,0,1.8,0.1,2.5h-1.6l-0.1-1.7h0c-0.5,1.1-1.7,1.9-3.3,1.9c-2.3,0-4.1-2-4.1-4.9
			c0-3.2,2-5.2,4.3-5.2c1.5,0,2.5,0.7,2.9,1.5h0v-5.8H197.6z M195.9,503.3c0-0.2,0-0.5-0.1-0.7c-0.3-1.1-1.2-2-2.5-2
			c-1.8,0-2.9,1.6-2.9,3.7c0,2,1,3.6,2.9,3.6c1.2,0,2.3-0.8,2.6-2.1c0.1-0.2,0.1-0.5,0.1-0.8V503.3z"/>
		<path class="st10" d="M205.9,509l-0.1-1.2h-0.1c-0.5,0.8-1.6,1.4-3,1.4c-2,0-3-1.4-3-2.8c0-2.3,2.1-3.6,5.8-3.6v-0.2
			c0-0.8-0.2-2.2-2.2-2.2c-0.9,0-1.8,0.3-2.5,0.7l-0.4-1.2c0.8-0.5,2-0.9,3.2-0.9c3,0,3.7,2,3.7,4v3.6c0,0.8,0,1.7,0.2,2.3H205.9z
			 M205.6,504.1c-1.9,0-4.1,0.3-4.1,2.2c0,1.1,0.8,1.7,1.7,1.7c1.3,0,2.1-0.8,2.3-1.6c0.1-0.2,0.1-0.4,0.1-0.6V504.1z"/>
	</g>
	<g>
		<path class="st10" d="M154.2,123.9l-4.4-13.5h1.9l2.1,6.6c0.6,1.8,1.1,3.5,1.4,5h0c0.4-1.6,0.9-3.3,1.5-5l2.3-6.7h1.9l-4.8,13.5
			H154.2z"/>
		<path class="st10" d="M164.3,111.5c0,0.6-0.4,1.1-1.1,1.1c-0.6,0-1.1-0.5-1.1-1.1c0-0.6,0.5-1.1,1.1-1.1
			C163.9,110.4,164.3,110.9,164.3,111.5z M162.4,123.9v-9.7h1.8v9.7H162.4z"/>
		<path class="st10" d="M167.1,109.7h1.8v14.2h-1.8V109.7z"/>
		<path class="st10" d="M171.8,109.7h1.8v14.2h-1.8V109.7z"/>
		<path class="st10" d="M181.9,123.9l-0.1-1.2h-0.1c-0.5,0.8-1.6,1.4-3,1.4c-2,0-3-1.4-3-2.8c0-2.3,2.1-3.6,5.8-3.6v-0.2
			c0-0.8-0.2-2.2-2.2-2.2c-0.9,0-1.8,0.3-2.5,0.7l-0.4-1.2c0.8-0.5,2-0.9,3.2-0.9c3,0,3.7,2,3.7,4v3.6c0,0.8,0,1.7,0.2,2.3H181.9z
			 M181.6,119c-1.9,0-4.1,0.3-4.1,2.2c0,1.1,0.8,1.7,1.7,1.7c1.3,0,2.1-0.8,2.3-1.6c0.1-0.2,0.1-0.4,0.1-0.6V119z"/>
		<path class="st10" d="M200.7,123.3c-0.8,0.3-2.3,0.7-4.1,0.7c-2,0-3.7-0.5-5-1.8c-1.2-1.1-1.9-2.9-1.9-5c0-4,2.8-7,7.3-7
			c1.6,0,2.8,0.3,3.4,0.6l-0.4,1.4c-0.7-0.3-1.6-0.6-3-0.6c-3.3,0-5.4,2-5.4,5.4c0,3.4,2.1,5.4,5.2,5.4c1.1,0,1.9-0.2,2.3-0.4v-4
			h-2.7v-1.4h4.4V123.3z"/>
		<path class="st10" d="M211.4,121.3c0,1,0,1.9,0.1,2.6h-1.6l-0.1-1.6h0c-0.5,0.8-1.5,1.8-3.2,1.8c-1.5,0-3.3-0.8-3.3-4.2v-5.7h1.8
			v5.4c0,1.8,0.6,3.1,2.2,3.1c1.2,0,2-0.8,2.3-1.6c0.1-0.3,0.2-0.6,0.2-0.9v-5.9h1.8V121.3z"/>
		<path class="st10" d="M216.3,111.5c0,0.6-0.4,1.1-1.1,1.1c-0.6,0-1.1-0.5-1.1-1.1c0-0.6,0.5-1.1,1.1-1.1
			C215.9,110.4,216.3,110.9,216.3,111.5z M214.3,123.9v-9.7h1.8v9.7H214.3z"/>
		<path class="st10" d="M219,109.7h1.8v14.2H219V109.7z"/>
		<path class="st10" d="M223.7,109.7h1.8v14.2h-1.8V109.7z"/>
		<path class="st10" d="M229.4,119.4c0,2.4,1.6,3.4,3.3,3.4c1.3,0,2-0.2,2.7-0.5l0.3,1.3c-0.6,0.3-1.7,0.6-3.2,0.6
			c-3,0-4.8-2-4.8-4.9c0-2.9,1.7-5.2,4.5-5.2c3.2,0,4,2.8,4,4.6c0,0.4,0,0.6-0.1,0.8H229.4z M234.6,118.2c0-1.1-0.5-2.9-2.4-2.9
			c-1.8,0-2.6,1.6-2.7,2.9H234.6z"/>
		<path class="st10" d="M238.5,117.3c0-1.1,0-2.1-0.1-3h1.5l0.1,1.9h0.1c0.4-1.3,1.5-2.1,2.7-2.1c0.2,0,0.3,0,0.5,0.1v1.7
			c-0.2,0-0.4-0.1-0.6-0.1c-1.2,0-2.1,0.9-2.4,2.3c0,0.2-0.1,0.5-0.1,0.8v5.2h-1.7V117.3z"/>
		<path class="st10" d="M245,116.9c0-1,0-1.8-0.1-2.6h1.5l0.1,1.6h0.1c0.5-0.9,1.4-1.8,3-1.8c1.3,0,2.3,0.8,2.7,1.9h0
			c0.3-0.5,0.7-1,1.1-1.3c0.6-0.4,1.2-0.7,2.1-0.7c1.3,0,3.2,0.8,3.2,4.2v5.7h-1.7v-5.5c0-1.9-0.7-3-2.1-3c-1,0-1.8,0.7-2.1,1.6
			c-0.1,0.2-0.1,0.6-0.1,0.9v6h-1.7v-5.8c0-1.5-0.7-2.7-2-2.7c-1.1,0-1.9,0.9-2.2,1.8c-0.1,0.3-0.1,0.6-0.1,0.9v5.8H245V116.9z"/>
		<path class="st10" d="M263.6,111.5c0,0.6-0.4,1.1-1.1,1.1c-0.6,0-1.1-0.5-1.1-1.1c0-0.6,0.5-1.1,1.1-1.1
			C263.2,110.4,263.6,110.9,263.6,111.5z M261.7,123.9v-9.7h1.8v9.7H261.7z"/>
		<path class="st10" d="M266.4,116.9c0-1,0-1.8-0.1-2.6h1.6l0.1,1.6h0c0.5-0.9,1.6-1.8,3.2-1.8c1.3,0,3.4,0.8,3.4,4.1v5.8h-1.8v-5.6
			c0-1.6-0.6-2.9-2.2-2.9c-1.2,0-2.1,0.8-2.4,1.8c-0.1,0.2-0.1,0.5-0.1,0.8v5.8h-1.8V116.9z"/>
		<path class="st10" d="M282.8,123.9l-0.1-1.2h-0.1c-0.5,0.8-1.6,1.4-3,1.4c-2,0-3-1.4-3-2.8c0-2.3,2.1-3.6,5.8-3.6v-0.2
			c0-0.8-0.2-2.2-2.2-2.2c-0.9,0-1.8,0.3-2.5,0.7l-0.4-1.2c0.8-0.5,2-0.9,3.2-0.9c3,0,3.7,2,3.7,4v3.6c0,0.8,0,1.7,0.2,2.3H282.8z
			 M282.6,119c-1.9,0-4.1,0.3-4.1,2.2c0,1.1,0.8,1.7,1.7,1.7c1.3,0,2.1-0.8,2.3-1.6c0.1-0.2,0.1-0.4,0.1-0.6V119z"/>
	</g>
	<g>
		<path class="st10" d="M402.2,164l-4.4-13.5h1.9l2.1,6.6c0.6,1.8,1.1,3.5,1.4,5h0c0.4-1.6,0.9-3.3,1.5-5l2.3-6.7h1.9l-4.8,13.5
			H402.2z"/>
		<path class="st10" d="M412.3,151.6c0,0.6-0.4,1.1-1.1,1.1c-0.6,0-1.1-0.5-1.1-1.1c0-0.6,0.5-1.1,1.1-1.1
			C411.9,150.5,412.3,151,412.3,151.6z M410.3,164v-9.7h1.8v9.7H410.3z"/>
		<path class="st10" d="M415,149.8h1.8V164H415V149.8z"/>
		<path class="st10" d="M419.7,149.8h1.8V164h-1.8V149.8z"/>
		<path class="st10" d="M429.8,164l-0.1-1.2h-0.1c-0.5,0.8-1.6,1.4-3,1.4c-2,0-3-1.4-3-2.8c0-2.3,2.1-3.6,5.8-3.6v-0.2
			c0-0.8-0.2-2.2-2.2-2.2c-0.9,0-1.8,0.3-2.5,0.7l-0.4-1.2c0.8-0.5,2-0.9,3.2-0.9c3,0,3.7,2,3.7,4v3.6c0,0.8,0,1.7,0.2,2.3H429.8z
			 M429.5,159c-1.9,0-4.1,0.3-4.1,2.2c0,1.1,0.8,1.7,1.7,1.7c1.3,0,2.1-0.8,2.3-1.6c0.1-0.2,0.1-0.4,0.1-0.6V159z"/>
		<path class="st10" d="M449.9,157.1c0,4.6-2.8,7.1-6.3,7.1c-3.6,0-6.1-2.8-6.1-6.8c0-4.3,2.7-7.1,6.3-7.1
			C447.5,150.3,449.9,153.1,449.9,157.1z M439.4,157.3c0,2.9,1.6,5.5,4.3,5.5c2.8,0,4.3-2.5,4.3-5.6c0-2.7-1.4-5.5-4.3-5.5
			C440.9,151.7,439.4,154.4,439.4,157.3z"/>
		<path class="st10" d="M459,163.6c-0.5,0.2-1.5,0.6-2.8,0.6c-2.9,0-4.8-2-4.8-4.9c0-3,2-5.1,5.2-5.1c1,0,2,0.3,2.4,0.5l-0.4,1.4
			c-0.4-0.2-1.1-0.5-2-0.5c-2.2,0-3.4,1.6-3.4,3.7c0,2.2,1.4,3.6,3.4,3.6c1,0,1.7-0.3,2.2-0.5L459,163.6z"/>
		<path class="st10" d="M466.4,164l-0.1-1.2h-0.1c-0.5,0.8-1.6,1.4-3,1.4c-2,0-3-1.4-3-2.8c0-2.3,2.1-3.6,5.8-3.6v-0.2
			c0-0.8-0.2-2.2-2.2-2.2c-0.9,0-1.8,0.3-2.5,0.7l-0.4-1.2c0.8-0.5,2-0.9,3.2-0.9c3,0,3.7,2,3.7,4v3.6c0,0.8,0,1.7,0.2,2.3H466.4z
			 M466.2,159c-1.9,0-4.1,0.3-4.1,2.2c0,1.1,0.8,1.7,1.7,1.7c1.3,0,2.1-0.8,2.3-1.6c0.1-0.2,0.1-0.4,0.1-0.6V159z"/>
		<path class="st10" d="M470.7,156.9c0-1,0-1.8-0.1-2.6h1.5l0.1,1.6h0.1c0.5-0.9,1.4-1.8,3-1.8c1.3,0,2.3,0.8,2.7,1.9h0
			c0.3-0.5,0.7-1,1.1-1.3c0.6-0.4,1.2-0.7,2.1-0.7c1.3,0,3.2,0.8,3.2,4.2v5.7h-1.7v-5.5c0-1.9-0.7-3-2.1-3c-1,0-1.8,0.7-2.1,1.6
			c-0.1,0.2-0.1,0.6-0.1,0.9v6h-1.7v-5.8c0-1.5-0.7-2.7-2-2.7c-1.1,0-1.9,0.9-2.2,1.8c-0.1,0.3-0.1,0.6-0.1,0.9v5.8h-1.7V156.9z"/>
		<path class="st10" d="M487.4,157.5c0-1.2,0-2.2-0.1-3.2h1.6l0.1,1.7h0c0.7-1.2,1.9-1.9,3.4-1.9c2.3,0,4.1,2,4.1,4.9
			c0,3.5-2.1,5.2-4.4,5.2c-1.3,0-2.4-0.6-3-1.5h0v5.3h-1.7V157.5z M489.1,160c0,0.3,0,0.5,0.1,0.7c0.3,1.2,1.4,2.1,2.6,2.1
			c1.9,0,2.9-1.5,2.9-3.7c0-1.9-1-3.6-2.9-3.6c-1.2,0-2.3,0.9-2.7,2.2c-0.1,0.2-0.1,0.5-0.1,0.7V160z"/>
		<path class="st10" d="M507.5,159.1c0,3.6-2.5,5.1-4.8,5.1c-2.6,0-4.6-1.9-4.6-5c0-3.2,2.1-5.1,4.8-5.1
			C505.6,154.1,507.5,156.1,507.5,159.1z M499.8,159.2c0,2.1,1.2,3.7,2.9,3.7c1.7,0,2.9-1.6,2.9-3.8c0-1.6-0.8-3.7-2.9-3.7
			C500.7,155.4,499.8,157.3,499.8,159.2z"/>
	</g>
	<path class="st5" d="M294.5,228.2c-29.5,0-50.2-4.8-50.5-4.9l0.9-3.9c0.6,0.1,60.1,14.1,121.7-6.1l1.2,3.8
		C341.7,225.7,315.8,228.2,294.5,228.2"/>
	<path class="st8" d="M389.3,155c0-4.4-3.6-8-8-8s-8,3.6-8,8c0,4.4,3.6,8,8,8S389.3,159.4,389.3,155"/>
	<path class="st11" d="M216.3,474.7c0-4.4-3.6-8-8-8c-4.4,0-8,3.6-8,8s3.6,8,8,8C212.6,482.7,216.3,479.1,216.3,474.7z"/>
	<path class="st11" d="M375.3,215.2c0-4.4-3.6-8-8-8c-4.4,0-8,3.6-8,8s3.6,8,8,8C371.7,223.2,375.3,219.6,375.3,215.2z"/>
	<path class="st11" d="M252.5,221.3c0-4.4-3.6-8-8-8c-4.4,0-8,3.6-8,8s3.6,8,8,8C248.9,229.4,252.5,225.7,252.5,221.3z"/>
	<path class="st11" d="M402.5,100.4c0-4.4-3.6-8-8-8c-4.4,0-8,3.6-8,8c0,4.4,3.6,8,8,8C398.9,108.4,402.5,104.8,402.5,100.4z"/>
	<path class="st11" d="M411.2,37.8c0-4.4-3.6-8-8-8c-4.4,0-8,3.6-8,8c0,4.4,3.6,8,8,8C407.6,45.9,411.2,42.3,411.2,37.8z"/>
</g>
</svg>
