<?xml version="1.0" encoding="utf-8"?>
<!-- Generator: Adobe Illustrator 23.0.0, SVG Export Plug-In . SVG Version: 6.00 Build 0)  -->
<svg version="1.1" id="Capa_1" xmlns="http://www.w3.org/2000/svg" xmlns:xlink="http://www.w3.org/1999/xlink" x="0px" y="0px"
	 viewBox="0 0 610 130" style="enable-background:new 0 0 610 130;" xml:space="preserve">
<style type="text/css">
	.st0{fill-rule:evenodd;clip-rule:evenodd;fill:#FFFFFF;}
</style>
<path class="st0" d="M551.8,57.3c4.5-3.9,10.3-5.8,17.2-5.8c5.9,0,11.1,1.8,15.5,5.4c3.4,2.8,5.9,6.7,7.3,11.7
	c0.3,1.2-0.6,2.3-1.8,2.3h-43.8c-1.2,0-2.1-1.2-1.7-2.4C545.9,64,548.4,60.2,551.8,57.3 M368.4,104.8c-7.5,0-13.6-2.5-18.6-7.6
	c-5.1-5.1-7.5-11.3-7.5-18.9s2.5-13.8,7.5-18.9c5.1-5.1,11.2-7.6,18.6-7.6c7.6,0,13.7,2.5,18.8,7.6c5.1,5.1,7.5,11.3,7.5,18.9
	s-2.5,13.8-7.5,18.9C382.1,102.3,375.9,104.8,368.4,104.8 M408.4,37.1h-10.1c-2,0-3.5,1.6-3.5,3.5v2.1c0,1.6-1.9,2.4-3,1.3
	c-6.6-6-15-9-25.1-9c-11.5,0-21.4,4.2-29.5,12.6C329.1,56,325,66.3,325,78.3c0,12,4.1,22.3,12.2,30.6c8.1,8.4,18,12.6,29.5,12.6
	c10.1,0,18.5-3,25.1-9c1.2-1.1,3-0.2,3,1.3v2.1c0,2,1.6,3.5,3.5,3.5h10.1c2,0,3.5-1.6,3.5-3.5V40.7
	C411.9,38.7,410.3,37.1,408.4,37.1 M319.3,37.1h-15.6c-1,0-1.8-0.8-1.8-1.8V16.8c0-0.5-0.3-1.1-0.7-1.4c-0.3-0.2-0.7-0.3-1-0.3
	c-0.2,0-0.3,0-0.5,0.1l-12.4,3.7c-1.5,0.4-2.5,1.8-2.5,3.4v13.1c0,1-0.8,1.8-1.8,1.8h-10.3c-2,0-3.5,1.6-3.5,3.5v9.6
	c0,2,1.6,3.5,3.5,3.5h10.3c1,0,1.8,0.8,1.8,1.8v39.2c0,10.4,3.1,17.6,9.2,21.4c4.1,2.6,9.9,3.9,17.1,3.9c2.7,0,5.7-0.2,8.8-0.5
	c1.8-0.2,3.1-1.7,3.1-3.5v-10.7c0-0.5-0.2-0.9-0.5-1.2c-0.3-0.3-0.7-0.5-1.2-0.5h-0.1c-3.6,0.2-6.9,0.3-9.6,0.3c-0.7,0-1.4,0-2,0
	c-2.7-0.1-4.6-0.7-5.8-2c-1.2-1.3-1.8-3.7-1.8-7.1V55.6c0-1,0.8-1.8,1.8-1.8h15.6c2,0,3.5-1.6,3.5-3.5v-9.6
	C322.9,38.7,321.3,37.1,319.3,37.1 M232.6,35.1c-8.4,0-15.4,2.3-20.9,7c-1.2,1-3,0.2-3-1.4c0-2-1.6-3.5-3.5-3.5h-10.1
	c-2,0-3.5,1.6-3.5,3.5v75.2c0,2,1.6,3.5,3.5,3.5h10.1c2,0,3.5-1.6,3.5-3.5v-40c0-8.3,2-14.5,5.8-18.4c3.9-4,8.9-5.9,15.3-5.9
	c5.7,0,10,1.6,13.1,4.8c3.1,3.2,4.7,7.8,4.7,13.7v45.8c0,2,1.6,3.5,3.5,3.5h10.1c2,0,3.5-1.6,3.5-3.5V69.3c0-10.4-3-18.8-8.8-24.9
	C250.2,38.2,242.3,35.1,232.6,35.1 M133.3,104.8c-7.5,0-13.6-2.5-18.6-7.6c-5.1-5.1-7.5-11.3-7.5-18.9s2.5-13.8,7.5-18.9
	c5.1-5.1,11.2-7.6,18.6-7.6c7.6,0,13.7,2.5,18.8,7.6c5.1,5.1,7.5,11.3,7.5,18.9s-2.5,13.8-7.5,18.9
	C147,102.3,140.9,104.8,133.3,104.8 M173.3,37.1h-10.1c-2,0-3.5,1.6-3.5,3.5v2.1c0,1.6-1.9,2.4-3,1.3c-6.6-6-15-9-25.1-9
	c-11.5,0-21.4,4.2-29.5,12.6C94,56,89.9,66.3,89.9,78.3c0,12,4.1,22.3,12.2,30.6c8.1,8.4,18,12.6,29.5,12.6c10.1,0,18.5-3,25.1-9
	c1.2-1.1,3-0.2,3,1.3v2.1c0,2,1.6,3.5,3.5,3.5h10.1c2,0,3.5-1.6,3.5-3.5V40.7C176.8,38.7,175.2,37.1,173.3,37.1 M41.5,122.5
	c-10.7,0-19.7-2.4-27.2-7.3c-6.1-4-10.7-9.2-13.8-15.7c-1.1-2.3-0.3-5.2,2-6.5l7.2-4.2c2.4-1.4,5.5-0.6,6.8,1.9
	c4.9,9.3,13.4,14,25.5,14c6.9,0,12-1.3,15.4-4c3.4-2.7,5.1-6.2,5.1-10.5c0-4.5-1.9-8-5.6-10.3c-3.7-2.4-10.2-5-19.6-7.8
	c0,0-0.1,0-0.1,0c-5.1-1.9-9.3-3.5-12.7-4.7c-3.3-1.2-6.8-3.1-10.4-5.6c-3.6-2.5-6.4-5.6-8.2-9.3c-1.8-3.7-2.7-8-2.7-13
	c0-9.8,3.5-17.6,10.4-23.4c7-5.7,15.4-8.6,25.2-8.6c8.9,0,16.6,2.2,23.3,6.5c5.3,3.4,9.6,7.9,12.9,13.4c1.5,2.4,0.7,5.5-1.8,6.9
	l-6.8,3.9c-2.3,1.3-5.2,0.6-6.6-1.7C55.3,29,48.2,25.3,38.9,25.3c-5.3,0-9.5,1.2-12.7,3.7c-3.2,2.5-4.7,5.8-4.7,10.1
	c0,4,1.6,7.2,4.9,9.5c3.2,2.3,9.1,4.8,17.5,7.3c0,0,0.1,0,0.1,0c4.1,1.5,7.1,2.7,9,3.4c1.9,0.7,4.7,1.8,8.3,3.1
	c3.6,1.4,6.3,2.8,8.1,4.3c1.8,1.5,3.7,3.4,5.7,5.6c2,2.2,3.5,4.8,4.3,7.7c0.8,2.9,1.3,6.2,1.3,9.8c0,10-3.6,18-10.9,23.8
	C62.7,119.5,53.2,122.5,41.5,122.5 M518.8,27h-40c-1.1,0-1.9,0.9-1.9,1.9v27.2c0,1.1,0.9,1.9,1.9,1.9h35.6c2.7,0,4.8,2.2,4.8,4.8
	v7.8c0,2.7-2.2,4.8-4.8,4.8h-35.6c-1.1,0-1.9,0.9-1.9,1.9v38.2c0,2.7-2.2,4.8-4.8,4.8h-8.6c-2.7,0-4.8-2.2-4.8-4.8V14.4
	c0-2.7,2.2-4.8,4.8-4.8h55.3c2.7,0,4.8,2.2,4.8,4.8v7.8C523.6,24.8,521.5,27,518.8,27 M598.6,47.9C591,39.4,581,35.1,569,35.1
	c-12.6,0-23.1,4.2-31.1,12.4c-8,8.2-12,18.6-12,30.9c0,12.4,4.1,22.8,12.3,31c8.1,8.1,18.8,12.3,31.7,12.3
	c13.7,0,24.5-4.6,32.4-13.6c2.2-2.5,1.4-6.4-1.4-8l-5.3-3.1c-2.2-1.3-5-0.8-6.7,1.1c-4.4,4.8-10.5,7.2-18.6,7.2
	c-7,0-13-1.8-17.8-5.5c-3.6-2.7-6.2-6.4-7.8-10.9c-0.4-1.2,0.5-2.4,1.7-2.4h59.9c1.8,0,3.3-1.4,3.5-3.1c0.2-1.6,0.3-3.2,0.3-4.8
	C610,66.6,606.2,56.3,598.6,47.9"/>
</svg>
